solid OpenSCAD_Model
  facet normal -2.22045e-16 -1 0
    outer loop
      vertex -12.5 -8.6 0
      vertex 12.5 -8.6 0
      vertex 12.5 -8.6 1.5
    endloop
  endfacet
  facet normal -2.22045e-16 -1 0
    outer loop
      vertex -11.8 -8.6 1.3298
      vertex -12.5 -8.6 0
      vertex 12.5 -8.6 1.5
    endloop
  endfacet
  facet normal -2.22045e-16 -1 0
    outer loop
      vertex -11.8 -8.6 1.5
      vertex -11.8 -8.6 1.3298
      vertex 12.5 -8.6 1.5
    endloop
  endfacet
  facet normal -2.22045e-16 -1 0
    outer loop
      vertex -11.8 -8.6 1.3298
      vertex -12.5 -8.6 1.3298
      vertex -12.5 -8.6 0
    endloop
  endfacet
  facet normal 1 -2.22045e-16 0
    outer loop
      vertex 12.5 -8.6 1.5
      vertex 12.5 -8.6 0
      vertex 12.5 8.6 0
    endloop
  endfacet
  facet normal 1 -2.22045e-16 0
    outer loop
      vertex 12.5 8.6 1.5
      vertex 12.5 -8.6 1.5
      vertex 12.5 8.6 0
    endloop
  endfacet
  facet normal 0 0 -1
    outer loop
      vertex -11.8 -7.9 0
      vertex -12.5 -8.6 0
      vertex -12.5 8.6 0
    endloop
  endfacet
  facet normal 0 0 -1
    outer loop
      vertex -11.8 7.9 0
      vertex -11.8 -7.9 0
      vertex -12.5 8.6 0
    endloop
  endfacet
  facet normal 0 0 -1
    outer loop
      vertex 12.5 -8.6 0
      vertex -12.5 -8.6 0
      vertex 11.8 -7.9 0
    endloop
  endfacet
  facet normal 0 0 -1
    outer loop
      vertex 12.5 -8.6 0
      vertex 11.8 -7.9 0
      vertex 12.5 8.6 0
    endloop
  endfacet
  facet normal 0 0 -1
    outer loop
      vertex -11.8 7.9 0
      vertex 12.5 8.6 0
      vertex 11.8 7.9 0
    endloop
  endfacet
  facet normal 0 0 -1
    outer loop
      vertex 11.8 -7.9 0
      vertex 11.8 7.9 0
      vertex 12.5 8.6 0
    endloop
  endfacet
  facet normal 0 0 -1
    outer loop
      vertex 12.5 8.6 0
      vertex -11.8 7.9 0
      vertex -12.5 8.6 0
    endloop
  endfacet
  facet normal 0 0 -1
    outer loop
      vertex 11.8 -7.9 0
      vertex -12.5 -8.6 0
      vertex -11.8 -7.9 0
    endloop
  endfacet
  facet normal -1 2.22045e-16 0
    outer loop
      vertex -12.5 -8.6 0
      vertex -12.5 -8.6 1.3298
      vertex -12.5 8.6 0
    endloop
  endfacet
  facet normal -1 2.22045e-16 0
    outer loop
      vertex -12.5 8.6 0
      vertex -12.5 -8.6 1.3298
      vertex -12.5 6.6 0.799
    endloop
  endfacet
  facet normal -1 2.22045e-16 0
    outer loop
      vertex -12.5 7.6 0.799
      vertex -12.5 7.6 1.5
      vertex -12.5 8.6 0
    endloop
  endfacet
  facet normal -1 2.22045e-16 0
    outer loop
      vertex -12.5 8.6 0
      vertex -12.5 7.6 1.5
      vertex -12.5 8.6 1.5
    endloop
  endfacet
  facet normal -1 2.22045e-16 0
    outer loop
      vertex -12.5 7.6 0.799
      vertex -12.5 8.6 0
      vertex -12.5 6.6 0.799
    endloop
  endfacet
  facet normal 1.16239e-17 0.0348995 0.999391
    outer loop
      vertex -11.8 6.6 0.799
      vertex -12.5 6.6 0.799
      vertex -12.5 -8.6 1.3298
    endloop
  endfacet
  facet normal 1.16239e-17 0.0348995 0.999391
    outer loop
      vertex -11.8 -8.6 1.3298
      vertex -11.8 6.6 0.799
      vertex -12.5 -8.6 1.3298
    endloop
  endfacet
  facet normal -1 3.3312e-16 -4.07289e-19
    outer loop
      vertex -11.8 6.6 1.5
      vertex -11.8 6.6 0.799
      vertex -11.8 -8.6 1.5
    endloop
  endfacet
  facet normal -1 3.3312e-16 -4.07289e-19
    outer loop
      vertex -11.8 -8.6 1.5
      vertex -11.8 6.6 0.799
      vertex -11.8 -8.6 1.3298
    endloop
  endfacet
  facet normal 0 0 1
    outer loop
      vertex 11.8 7.9 1.5
      vertex 12.5 -8.6 1.5
      vertex 12.5 8.6 1.5
    endloop
  endfacet
  facet normal 0 0 1
    outer loop
      vertex 11.8 -7.9 1.5
      vertex -11.8 -7.9 1.5
      vertex -11.8 -8.6 1.5
    endloop
  endfacet
  facet normal 0 0 1
    outer loop
      vertex -12.5 8.6 1.5
      vertex -11.8 7.9 1.5
      vertex 12.5 8.6 1.5
    endloop
  endfacet
  facet normal 0 0 1
    outer loop
      vertex -12.5 8.6 1.5
      vertex -11.8 7.6 1.5
      vertex -11.8 7.9 1.5
    endloop
  endfacet
  facet normal 0 0 1
    outer loop
      vertex 11.8 -7.9 1.5
      vertex 12.5 -8.6 1.5
      vertex 11.8 7.9 1.5
    endloop
  endfacet
  facet normal 0 0 1
    outer loop
      vertex -11.8 -8.6 1.5
      vertex 12.5 -8.6 1.5
      vertex 11.8 -7.9 1.5
    endloop
  endfacet
  facet normal 0 0 1
    outer loop
      vertex -11.8 6.6 1.5
      vertex -11.8 -8.6 1.5
      vertex -11.8 -7.9 1.5
    endloop
  endfacet
  facet normal 0 0 1
    outer loop
      vertex -12.5 7.6 1.5
      vertex -11.8 7.6 1.5
      vertex -12.5 8.6 1.5
    endloop
  endfacet
  facet normal 0 0 1
    outer loop
      vertex -11.8 7.9 1.5
      vertex 11.8 7.9 1.5
      vertex 12.5 8.6 1.5
    endloop
  endfacet
  facet normal 2.22045e-16 1 0
    outer loop
      vertex 12.5 8.6 0
      vertex -12.5 8.6 0
      vertex 12.5 8.6 1.5
    endloop
  endfacet
  facet normal 2.22045e-16 1 0
    outer loop
      vertex 12.5 8.6 1.5
      vertex -12.5 8.6 0
      vertex -12.5 8.6 1.5
    endloop
  endfacet
  facet normal -2.22045e-16 -1 0
    outer loop
      vertex -11.8 -7.9 -0.005
      vertex 11.8 -7.9 -0.005
      vertex 11.8 -7.9 0
    endloop
  endfacet
  facet normal -2.22045e-16 -1 0
    outer loop
      vertex -11.8 -7.9 0
      vertex -11.8 -7.9 -0.005
      vertex 11.8 -7.9 0
    endloop
  endfacet
  facet normal -1 2.22045e-16 0
    outer loop
      vertex -11.8 -7.9 -0.005
      vertex -11.8 -7.9 0
      vertex -11.8 7.9 -0.005
    endloop
  endfacet
  facet normal -1 2.22045e-16 0
    outer loop
      vertex -11.8 7.9 -0.005
      vertex -11.8 -7.9 0
      vertex -11.8 7.9 0
    endloop
  endfacet
  facet normal 2.22045e-16 1 0
    outer loop
      vertex 11.8 7.9 -0.005
      vertex -11.8 7.9 -0.005
      vertex 11.8 7.9 0
    endloop
  endfacet
  facet normal 2.22045e-16 1 0
    outer loop
      vertex 11.8 7.9 0
      vertex -11.8 7.9 -0.005
      vertex -11.8 7.9 0
    endloop
  endfacet
  facet normal 1 -2.22045e-16 0
    outer loop
      vertex 11.8 -7.9 0
      vertex 11.8 -7.9 -0.005
      vertex 11.8 7.9 -0.005
    endloop
  endfacet
  facet normal 1 -2.22045e-16 0
    outer loop
      vertex 11.8 7.9 0
      vertex 11.8 -7.9 0
      vertex 11.8 7.9 -0.005
    endloop
  endfacet
  facet normal -2.22045e-16 -1 0
    outer loop
      vertex -11.5 7.6 0.799
      vertex -11.5 7.6 -0.005
      vertex 11.5 7.6 2.385
    endloop
  endfacet
  facet normal -2.22045e-16 -1 0
    outer loop
      vertex 11.5 7.6 2.385
      vertex -11.8 7.6 2.385
      vertex -11.8 7.6 1.5
    endloop
  endfacet
  facet normal -2.22045e-16 -1 0
    outer loop
      vertex -12.5 7.6 0.799
      vertex 11.5 7.6 2.385
      vertex -11.8 7.6 1.5
    endloop
  endfacet
  facet normal -2.22045e-16 -1 0
    outer loop
      vertex -12.5 7.6 1.5
      vertex -12.5 7.6 0.799
      vertex -11.8 7.6 1.5
    endloop
  endfacet
  facet normal -2.22045e-16 -1 0
    outer loop
      vertex -12.5 7.6 0.799
      vertex -11.5 7.6 0.799
      vertex 11.5 7.6 2.385
    endloop
  endfacet
  facet normal -2.22045e-16 -1 0
    outer loop
      vertex 2.5 7.6 -0.001
      vertex 11.5 7.6 -0.005
      vertex 11.5 7.6 2.385
    endloop
  endfacet
  facet normal -2.22045e-16 -1 0
    outer loop
      vertex -11.5 7.6 -0.005
      vertex 11.5 7.6 -0.005
      vertex 2.5 7.6 -0.001
    endloop
  endfacet
  facet normal -2.22045e-16 -1 0
    outer loop
      vertex -11.5 7.6 -0.005
      vertex 2.5 7.6 -0.001
      vertex 1.5 7.6 -0.001
    endloop
  endfacet
  facet normal -2.22045e-16 -1 0
    outer loop
      vertex -11.5 7.6 -0.005
      vertex 1.5 7.6 0.799
      vertex 11.5 7.6 2.385
    endloop
  endfacet
  facet normal -2.22045e-16 -1 0
    outer loop
      vertex -11.5 7.6 -0.005
      vertex 1.5 7.6 -0.001
      vertex 1.5 7.6 0.799
    endloop
  endfacet
  facet normal -2.22045e-16 -1 0
    outer loop
      vertex 1.5 7.6 0.799
      vertex 2.5 7.6 0.799
      vertex 11.5 7.6 2.385
    endloop
  endfacet
  facet normal -2.22045e-16 -1 0
    outer loop
      vertex 2.5 7.6 0.799
      vertex 2.5 7.6 -0.001
      vertex 11.5 7.6 2.385
    endloop
  endfacet
  facet normal 0 0 1
    outer loop
      vertex -11.5 7.6 0.799
      vertex -12.5 7.6 0.799
      vertex -12.5 6.6 0.799
    endloop
  endfacet
  facet normal 0 0 1
    outer loop
      vertex -11.5 6.6 0.799
      vertex -11.5 7.6 0.799
      vertex -11.8 6.6 0.799
    endloop
  endfacet
  facet normal 0 0 1
    outer loop
      vertex -11.8 6.6 0.799
      vertex -11.5 7.6 0.799
      vertex -12.5 6.6 0.799
    endloop
  endfacet
  facet normal 2.22045e-16 1 0
    outer loop
      vertex -11.5 6.6 2.385
      vertex -11.8 6.6 1.5
      vertex -11.8 6.6 2.385
    endloop
  endfacet
  facet normal 2.22045e-16 1 0
    outer loop
      vertex -11.8 6.6 0.799
      vertex -11.8 6.6 1.5
      vertex -11.5 6.6 2.385
    endloop
  endfacet
  facet normal 2.22045e-16 1 0
    outer loop
      vertex -11.8 6.6 0.799
      vertex -11.5 6.6 2.385
      vertex -11.5 6.6 0.799
    endloop
  endfacet
  facet normal -1 2.22045e-16 0
    outer loop
      vertex -11.8 -7.9 1.5
      vertex -11.8 -7.9 2.385
      vertex -11.8 6.6 1.5
    endloop
  endfacet
  facet normal -1 2.22045e-16 0
    outer loop
      vertex -11.8 6.6 1.5
      vertex -11.8 -7.9 2.385
      vertex -11.8 6.6 2.385
    endloop
  endfacet
  facet normal -2.22045e-16 -1 0
    outer loop
      vertex -11.8 -7.9 1.5
      vertex 11.8 -7.9 1.5
      vertex 11.8 -7.9 2.385
    endloop
  endfacet
  facet normal -2.22045e-16 -1 0
    outer loop
      vertex -11.8 -7.9 2.385
      vertex -11.8 -7.9 1.5
      vertex 11.8 -7.9 2.385
    endloop
  endfacet
  facet normal 1 -2.22045e-16 0
    outer loop
      vertex 11.8 -7.9 2.385
      vertex 11.8 -7.9 1.5
      vertex 11.8 7.9 1.5
    endloop
  endfacet
  facet normal 1 -2.22045e-16 0
    outer loop
      vertex 11.8 7.9 2.385
      vertex 11.8 -7.9 2.385
      vertex 11.8 7.9 1.5
    endloop
  endfacet
  facet normal 2.22045e-16 1 0
    outer loop
      vertex 11.8 7.9 1.5
      vertex -11.8 7.9 1.5
      vertex 11.8 7.9 2.385
    endloop
  endfacet
  facet normal 2.22045e-16 1 0
    outer loop
      vertex 11.8 7.9 2.385
      vertex -11.8 7.9 1.5
      vertex -11.8 7.9 2.385
    endloop
  endfacet
  facet normal -1 2.22045e-16 0
    outer loop
      vertex -11.8 7.6 1.5
      vertex -11.8 7.6 2.385
      vertex -11.8 7.9 1.5
    endloop
  endfacet
  facet normal -1 2.22045e-16 0
    outer loop
      vertex -11.8 7.9 1.5
      vertex -11.8 7.6 2.385
      vertex -11.8 7.9 2.385
    endloop
  endfacet
  facet normal 0 0 -1
    outer loop
      vertex -11.5 -7.6 -0.005
      vertex -11.8 -7.9 -0.005
      vertex -11.8 7.9 -0.005
    endloop
  endfacet
  facet normal 0 0 -1
    outer loop
      vertex -11.5 7.6 -0.005
      vertex -11.5 -7.6 -0.005
      vertex -11.8 7.9 -0.005
    endloop
  endfacet
  facet normal 0 0 -1
    outer loop
      vertex 11.8 -7.9 -0.005
      vertex -11.8 -7.9 -0.005
      vertex 11.5 -7.6 -0.005
    endloop
  endfacet
  facet normal 0 0 -1
    outer loop
      vertex 11.8 -7.9 -0.005
      vertex 11.5 -7.6 -0.005
      vertex 11.8 7.9 -0.005
    endloop
  endfacet
  facet normal 0 0 -1
    outer loop
      vertex -11.5 7.6 -0.005
      vertex 11.8 7.9 -0.005
      vertex 11.5 7.6 -0.005
    endloop
  endfacet
  facet normal 0 0 -1
    outer loop
      vertex 11.5 -7.6 -0.005
      vertex 11.5 7.6 -0.005
      vertex 11.8 7.9 -0.005
    endloop
  endfacet
  facet normal 0 0 -1
    outer loop
      vertex 11.8 7.9 -0.005
      vertex -11.5 7.6 -0.005
      vertex -11.8 7.9 -0.005
    endloop
  endfacet
  facet normal 0 0 -1
    outer loop
      vertex 11.5 -7.6 -0.005
      vertex -11.8 -7.9 -0.005
      vertex -11.5 -7.6 -0.005
    endloop
  endfacet
  facet normal 0 0 1
    outer loop
      vertex 11.5 7.6 2.385
      vertex 11.8 -7.9 2.385
      vertex 11.8 7.9 2.385
    endloop
  endfacet
  facet normal 0 0 1
    outer loop
      vertex 11.5 -7.6 2.385
      vertex -11.5 -7.6 2.385
      vertex -11.8 -7.9 2.385
    endloop
  endfacet
  facet normal 0 0 1
    outer loop
      vertex -11.8 7.9 2.385
      vertex -11.8 7.6 2.385
      vertex 11.8 7.9 2.385
    endloop
  endfacet
  facet normal 0 0 1
    outer loop
      vertex 11.5 -7.6 2.385
      vertex 11.8 -7.9 2.385
      vertex 11.5 7.6 2.385
    endloop
  endfacet
  facet normal 0 0 1
    outer loop
      vertex -11.5 6.6 2.385
      vertex -11.8 6.6 2.385
      vertex -11.5 -7.6 2.385
    endloop
  endfacet
  facet normal 0 0 1
    outer loop
      vertex -11.8 -7.9 2.385
      vertex 11.8 -7.9 2.385
      vertex 11.5 -7.6 2.385
    endloop
  endfacet
  facet normal 0 0 1
    outer loop
      vertex -11.8 6.6 2.385
      vertex -11.8 -7.9 2.385
      vertex -11.5 -7.6 2.385
    endloop
  endfacet
  facet normal 0 0 1
    outer loop
      vertex -11.8 7.6 2.385
      vertex 11.5 7.6 2.385
      vertex 11.8 7.9 2.385
    endloop
  endfacet
  facet normal -1 2.22045e-16 0
    outer loop
      vertex 11.5 1.1 -0.001
      vertex 11.5 7.6 -0.005
      vertex 11.5 -7.6 -0.005
    endloop
  endfacet
  facet normal -1 2.22045e-16 0
    outer loop
      vertex 11.5 4.1 -0.001
      vertex 11.5 7.6 -0.005
      vertex 11.5 1.1 -0.001
    endloop
  endfacet
  facet normal -1 2.22045e-16 0
    outer loop
      vertex 11.5 -7.6 2.385
      vertex 11.5 1.1 -0.001
      vertex 11.5 -7.6 -0.005
    endloop
  endfacet
  facet normal -1 2.22045e-16 0
    outer loop
      vertex 11.5 4.1 0.799
      vertex 11.5 7.6 -0.005
      vertex 11.5 4.1 -0.001
    endloop
  endfacet
  facet normal -1 2.22045e-16 0
    outer loop
      vertex 11.5 7.6 2.385
      vertex 11.5 7.6 -0.005
      vertex 11.5 4.1 0.799
    endloop
  endfacet
  facet normal -1 2.22045e-16 0
    outer loop
      vertex 11.5 7.6 2.385
      vertex 11.5 4.1 0.799
      vertex 11.5 -7.6 2.385
    endloop
  endfacet
  facet normal -1 2.22045e-16 0
    outer loop
      vertex 11.5 1.1 0.799
      vertex 11.5 -7.6 2.385
      vertex 11.5 4.1 0.799
    endloop
  endfacet
  facet normal -1 2.22045e-16 0
    outer loop
      vertex 11.5 1.1 -0.001
      vertex 11.5 -7.6 2.385
      vertex 11.5 1.1 0.799
    endloop
  endfacet
  facet normal 1 -2.22045e-16 0
    outer loop
      vertex -11.5 7.6 -0.005
      vertex -11.5 7.6 0.799
      vertex -11.5 6.6 0.799
    endloop
  endfacet
  facet normal 1 -2.22045e-16 0
    outer loop
      vertex -11.5 4.1 0.799
      vertex -11.5 7.6 -0.005
      vertex -11.5 6.6 0.799
    endloop
  endfacet
  facet normal 1 -2.22045e-16 0
    outer loop
      vertex -11.5 6.6 2.385
      vertex -11.5 -7.6 2.385
      vertex -11.5 6.6 0.799
    endloop
  endfacet
  facet normal 1 -2.22045e-16 0
    outer loop
      vertex -11.5 4.1 -0.001
      vertex -11.5 -7.6 -0.005
      vertex -11.5 7.6 -0.005
    endloop
  endfacet
  facet normal 1 -2.22045e-16 0
    outer loop
      vertex -11.5 4.1 0.799
      vertex -11.5 4.1 -0.001
      vertex -11.5 7.6 -0.005
    endloop
  endfacet
  facet normal 1 -2.22045e-16 0
    outer loop
      vertex -11.5 -7.6 2.385
      vertex -11.5 -7.6 -0.005
      vertex -11.5 1.1 0.799
    endloop
  endfacet
  facet normal 1 -2.22045e-16 0
    outer loop
      vertex -11.5 -7.6 2.385
      vertex -11.5 4.1 0.799
      vertex -11.5 6.6 0.799
    endloop
  endfacet
  facet normal 1 -2.22045e-16 0
    outer loop
      vertex -11.5 1.1 -0.001
      vertex -11.5 -7.6 -0.005
      vertex -11.5 4.1 -0.001
    endloop
  endfacet
  facet normal 1 -2.22045e-16 0
    outer loop
      vertex -11.5 1.1 0.799
      vertex -11.5 -7.6 -0.005
      vertex -11.5 1.1 -0.001
    endloop
  endfacet
  facet normal 1 -2.22045e-16 0
    outer loop
      vertex -11.5 1.1 0.799
      vertex -11.5 4.1 0.799
      vertex -11.5 -7.6 2.385
    endloop
  endfacet
  facet normal 0 0 -1
    outer loop
      vertex 2.5 -7.6 -0.001
      vertex 1.5 -7.6 -0.001
      vertex 2.5 7.6 -0.001
    endloop
  endfacet
  facet normal 0 0 -1
    outer loop
      vertex 2.5 7.6 -0.001
      vertex 1.5 -7.6 -0.001
      vertex 1.5 7.6 -0.001
    endloop
  endfacet
  facet normal 1 -2.22045e-16 0
    outer loop
      vertex 2.5 -7.6 0.799
      vertex 2.5 -7.6 -0.001
      vertex 2.5 7.6 -0.001
    endloop
  endfacet
  facet normal 1 -2.22045e-16 0
    outer loop
      vertex 2.5 7.6 0.799
      vertex 2.5 -7.6 0.799
      vertex 2.5 7.6 -0.001
    endloop
  endfacet
  facet normal 0 0 1
    outer loop
      vertex 1.5 -7.6 0.799
      vertex 2.5 -7.6 0.799
      vertex 2.5 7.6 0.799
    endloop
  endfacet
  facet normal 0 0 1
    outer loop
      vertex 1.5 7.6 0.799
      vertex 1.5 -7.6 0.799
      vertex 2.5 7.6 0.799
    endloop
  endfacet
  facet normal -1 2.22045e-16 0
    outer loop
      vertex 1.5 -7.6 -0.001
      vertex 1.5 -7.6 0.799
      vertex 1.5 7.6 -0.001
    endloop
  endfacet
  facet normal -1 2.22045e-16 0
    outer loop
      vertex 1.5 7.6 -0.001
      vertex 1.5 -7.6 0.799
      vertex 1.5 7.6 0.799
    endloop
  endfacet
  facet normal 2.22045e-16 1 0
    outer loop
      vertex -11.5 -7.6 2.385
      vertex 11.5 -7.6 2.385
      vertex -11.5 -7.6 -0.005
    endloop
  endfacet
  facet normal 2.22045e-16 1 0
    outer loop
      vertex 2.5 -7.6 0.799
      vertex 11.5 -7.6 2.385
      vertex 11.5 -7.6 -0.005
    endloop
  endfacet
  facet normal 2.22045e-16 1 0
    outer loop
      vertex 1.5 -7.6 0.799
      vertex 11.5 -7.6 2.385
      vertex 2.5 -7.6 0.799
    endloop
  endfacet
  facet normal 2.22045e-16 1 0
    outer loop
      vertex 2.5 -7.6 -0.001
      vertex 2.5 -7.6 0.799
      vertex 11.5 -7.6 -0.005
    endloop
  endfacet
  facet normal 2.22045e-16 1 0
    outer loop
      vertex -11.5 -7.6 -0.005
      vertex 11.5 -7.6 2.385
      vertex 1.5 -7.6 0.799
    endloop
  endfacet
  facet normal 2.22045e-16 1 0
    outer loop
      vertex -11.5 -7.6 -0.005
      vertex 1.5 -7.6 -0.001
      vertex 11.5 -7.6 -0.005
    endloop
  endfacet
  facet normal 2.22045e-16 1 0
    outer loop
      vertex 1.5 -7.6 -0.001
      vertex 2.5 -7.6 -0.001
      vertex 11.5 -7.6 -0.005
    endloop
  endfacet
  facet normal 2.22045e-16 1 0
    outer loop
      vertex 1.5 -7.6 -0.001
      vertex -11.5 -7.6 -0.005
      vertex 1.5 -7.6 0.799
    endloop
  endfacet
  facet normal -2.22045e-16 -1 0
    outer loop
      vertex 10.5 1.1 -0.001
      vertex 11.5 1.1 -0.001
      vertex 11.5 1.1 0.799
    endloop
  endfacet
  facet normal -2.22045e-16 -1 0
    outer loop
      vertex 10.5 1.1 0.799
      vertex 10.5 1.1 -0.001
      vertex 11.5 1.1 0.799
    endloop
  endfacet
  facet normal 0 0 -1
    outer loop
      vertex 11.5 1.1 -0.001
      vertex 10.5 1.1 -0.001
      vertex 11.5 4.1 -0.001
    endloop
  endfacet
  facet normal 0 0 -1
    outer loop
      vertex 11.5 4.1 -0.001
      vertex 10.5 1.1 -0.001
      vertex 10.5 4.1 -0.001
    endloop
  endfacet
  facet normal 0 0 1
    outer loop
      vertex 10.5 1.1 0.799
      vertex 11.5 1.1 0.799
      vertex 11.5 4.1 0.799
    endloop
  endfacet
  facet normal 0 0 1
    outer loop
      vertex 10.5 4.1 0.799
      vertex 10.5 1.1 0.799
      vertex 11.5 4.1 0.799
    endloop
  endfacet
  facet normal 2.22045e-16 1 0
    outer loop
      vertex 11.5 4.1 -0.001
      vertex 10.5 4.1 -0.001
      vertex 11.5 4.1 0.799
    endloop
  endfacet
  facet normal 2.22045e-16 1 0
    outer loop
      vertex 11.5 4.1 0.799
      vertex 10.5 4.1 -0.001
      vertex 10.5 4.1 0.799
    endloop
  endfacet
  facet normal -2.22045e-16 -1 0
    outer loop
      vertex -11.5 1.1 -0.001
      vertex -10.5 1.1 -0.001
      vertex -10.5 1.1 0.799
    endloop
  endfacet
  facet normal -2.22045e-16 -1 0
    outer loop
      vertex -11.5 1.1 0.799
      vertex -11.5 1.1 -0.001
      vertex -10.5 1.1 0.799
    endloop
  endfacet
  facet normal 0 0 1
    outer loop
      vertex -11.5 1.1 0.799
      vertex -10.5 1.1 0.799
      vertex -10.5 4.1 0.799
    endloop
  endfacet
  facet normal 0 0 1
    outer loop
      vertex -11.5 4.1 0.799
      vertex -11.5 1.1 0.799
      vertex -10.5 4.1 0.799
    endloop
  endfacet
  facet normal 0 0 -1
    outer loop
      vertex -10.5 1.1 -0.001
      vertex -11.5 1.1 -0.001
      vertex -10.5 4.1 -0.001
    endloop
  endfacet
  facet normal 0 0 -1
    outer loop
      vertex -10.5 4.1 -0.001
      vertex -11.5 1.1 -0.001
      vertex -11.5 4.1 -0.001
    endloop
  endfacet
  facet normal 2.22045e-16 1 0
    outer loop
      vertex -10.5 4.1 -0.001
      vertex -11.5 4.1 -0.001
      vertex -10.5 4.1 0.799
    endloop
  endfacet
  facet normal 2.22045e-16 1 0
    outer loop
      vertex -10.5 4.1 0.799
      vertex -11.5 4.1 -0.001
      vertex -11.5 4.1 0.799
    endloop
  endfacet
  facet normal -1 2.22045e-16 0
    outer loop
      vertex 10.5 1.1 -0.001
      vertex 10.5 1.1 0.799
      vertex 10.5 4.1 -0.001
    endloop
  endfacet
  facet normal -1 2.22045e-16 0
    outer loop
      vertex 10.5 4.1 -0.001
      vertex 10.5 1.1 0.799
      vertex 10.5 4.1 0.799
    endloop
  endfacet
  facet normal 1 -2.22045e-16 0
    outer loop
      vertex -10.5 1.1 0.799
      vertex -10.5 1.1 -0.001
      vertex -10.5 4.1 -0.001
    endloop
  endfacet
  facet normal 1 -2.22045e-16 0
    outer loop
      vertex -10.5 4.1 0.799
      vertex -10.5 1.1 0.799
      vertex -10.5 4.1 -0.001
    endloop
  endfacet
endsolid OpenSCAD_Model
